<?xml version="1.0" encoding="utf-8"?>
<!-- Generator: Adobe Illustrator 16.0.0, SVG Export Plug-In . SVG Version: 6.00 Build 0)  -->
<!DOCTYPE svg PUBLIC "-//W3C//DTD SVG 1.1//EN" "http://www.w3.org/Graphics/SVG/1.1/DTD/svg11.dtd">
<svg version="1.1" id="Слой_1" xmlns="http://www.w3.org/2000/svg" xmlns:xlink="http://www.w3.org/1999/xlink" x="0px" y="0px"
	 width="20px" height="20px" viewBox="0 0 20 20" enable-background="new 0 0 20 20" xml:space="preserve">
<path fill="#DFE1E6" d="M19,1c0.552,0,1,0.448,1,1v17c0,0.553-0.448,1-1,1H1c-0.553,0-1-0.447-1-1V2c0-0.552,0.447-1,1-1h4
	c0.552,0,1,0.448,1,1S5.552,3,5,3H2v9h4c0.379,0,0.725,0.214,0.895,0.553L7.617,14h4.765l0.723-1.447
	C13.274,12.214,13.62,12,13.999,12h4V3h-3c-0.552,0-1-0.448-1-1s0.448-1,1-1H19L19,1z M2,18h16v-4h-3.383l-0.723,1.447
	C13.725,15.786,13.379,16,13,16H7c-0.38,0-0.726-0.214-0.896-0.553L5.382,14H2V18z M6.293,6.707c-0.391-0.391-0.391-1.023,0-1.414
	c0.39-0.391,1.023-0.391,1.413,0L9,6.586V1c0-0.552,0.447-1,1-1c0.552,0,1,0.448,1,1v5.586l1.293-1.293
	c0.39-0.391,1.023-0.391,1.413,0c0.391,0.391,0.391,1.023,0,1.414l-3,3c-0.388,0.391-1.019,0.392-1.409,0.004
	C9.295,9.71,9.294,9.708,9.293,9.707L6.293,6.707z"/>
</svg>
