<svg xmlns="http://www.w3.org/2000/svg" xmlns:xlink="http://www.w3.org/1999/xlink" width="16" height="16" viewBox="0 0 16 16">
    <defs>
        <linearGradient id="b" x1="50%" x2="50%" y1="3.117%" y2="100%">
            <stop offset="0%" stop-color="#FFF"/>
            <stop offset="100%" stop-color="#617985"/>
        </linearGradient>
        <rect id="a" width="16" height="16" rx="3"/>
    </defs>
    <g fill="none" fill-rule="evenodd">
        <g>
            <use fill="#FFF" xlink:href="#a"/>
            <use fill="url(#b)" fill-opacity=".02" xlink:href="#a"/>
            <rect width="15" height="15" x=".5" y=".5" stroke="#5C6AC4" rx="3"/>
        </g>
        <path fill="#5C6AC4" d="M6.315 11.858L3.133 8.441a.506.506 0 0 1 0-.684l.643-.683a.437.437 0 0 1 .642 0l2.219 2.393L11.58 4.14a.437.437 0 0 1 .643 0l.643.684a.504.504 0 0 1 0 .683l-5.91 6.35a.437.437 0 0 1-.642 0"/>
    </g>
</svg>
