<?xml version="1.0" encoding="utf-8"?>
<!-- Generator: Adobe Illustrator 16.0.0, SVG Export Plug-In . SVG Version: 6.00 Build 0)  -->
<!DOCTYPE svg PUBLIC "-//W3C//DTD SVG 1.1//EN" "http://www.w3.org/Graphics/SVG/1.1/DTD/svg11.dtd">
<svg version="1.1" id="Слой_1" xmlns="http://www.w3.org/2000/svg" xmlns:xlink="http://www.w3.org/1999/xlink" x="0px" y="0px"
	 width="146px" height="72px" viewBox="0 0 146 72" enable-background="new 0 0 146 72" xml:space="preserve">
<g>
	<path fill="#BFC4CD" fill-opacity="0.15" d="M44.381,26.187l-5.817-5.818l-5.047-5.048l-0.771-0.77
		c-0.354-0.352-0.831-0.549-1.329-0.551H2.396c-1.187,0-2.463,0.916-2.463,2.926V70c0,0.837,0.842,1.652,1.838,1.91
		c0.05,0.013,0.098,0.031,0.149,0.042C2.077,71.982,2.236,72,2.396,72h40.073c0.16,0,0.319-0.018,0.476-0.048
		c0.052-0.011,0.101-0.029,0.151-0.043c0.995-0.257,1.837-1.072,1.837-1.909V27.978C44.933,27.211,44.839,26.644,44.381,26.187
		L44.381,26.187z M41.368,26h-8.435v-8.435l4.247,4.249L41.368,26z M2.396,16h28.595c-0.036,0.127-0.056,0.259-0.058,0.391V28
		h11.607c0.135,0,0.265-0.025,0.391-0.058l0.002,0.036v12.693l-8.312-7.896c-0.403-0.38-1.039-0.362-1.419,0.042
		c-0.003,0.003-0.006,0.006-0.009,0.01l-9.795,10.727l-4.743-4.742c-0.368-0.369-0.958-0.393-1.355-0.056L1.933,51.836v-34.91
		C1.933,16.709,1.965,16,2.396,16z M2.396,70c-0.071,0-0.136-0.025-0.198-0.049c-0.161-0.075-0.265-0.236-0.265-0.414V55h41v14.537
		c-0.002,0.178-0.104,0.339-0.266,0.414C42.605,69.975,42.541,70,42.469,70H2.396L2.396,70z M3.651,53l14.245-12.124l10.313,10.313
		c0.391,0.391,1.023,0.391,1.414,0c0.391-0.39,0.391-1.023,0-1.414l0,0l-4.807-4.807l9.168-10.041l8.949,8.502V53H3.651L3.651,53z"
		/>
	<path fill="#BFC4CD" fill-opacity="0.15" d="M12.787,65.43c-0.019,0.446-0.171,0.764-0.458,0.95s-0.672,0.28-1.155,0.28
		c-0.19,0-0.396-0.021-0.614-0.068c-0.212-0.044-0.422-0.096-0.63-0.156c-0.188-0.056-0.372-0.119-0.554-0.191
		c-0.137-0.052-0.268-0.118-0.39-0.198l-0.697,1.106c0.182,0.138,0.405,0.261,0.67,0.369c0.264,0.109,0.54,0.207,0.827,0.295
		c0.287,0.086,0.565,0.149,0.834,0.19s0.503,0.062,0.704,0.062c0.401,0,0.791-0.038,1.169-0.115c0.358-0.069,0.7-0.209,1.005-0.41
		c0.292-0.195,0.524-0.456,0.697-0.779c0.173-0.322,0.26-0.723,0.26-1.195V57.72h-1.668V65.43L12.787,65.43z M22.2,58.744
		c-0.334-0.274-0.717-0.482-1.128-0.615c-0.41-0.135-0.839-0.205-1.271-0.205h-2.897V68h1.641v-3.637h1.217
		c0.528,0,1.013-0.077,1.449-0.232c0.414-0.141,0.795-0.364,1.121-0.656c0.31-0.281,0.551-0.631,0.725-1.045
		c0.174-0.416,0.261-0.878,0.261-1.389c0-0.482-0.104-0.918-0.309-1.307C22.807,59.354,22.533,59.018,22.2,58.744z M21.578,62.073
		c-0.101,0.278-0.232,0.493-0.396,0.649c-0.153,0.148-0.338,0.263-0.539,0.334c-0.191,0.068-0.393,0.103-0.596,0.104h-1.504v-3.992
		h1.23c0.419,0,0.756,0.066,1.012,0.198c0.255,0.132,0.453,0.296,0.595,0.491c0.142,0.197,0.234,0.401,0.28,0.615
		c0.042,0.187,0.064,0.377,0.068,0.567C21.728,61.451,21.677,61.795,21.578,62.073z M29.193,63.926h1.709v2.488
		c-0.088,0.111-0.207,0.191-0.342,0.232c-0.158,0.055-0.32,0.099-0.485,0.129c-0.167,0.033-0.336,0.055-0.506,0.068
		c-0.134,0.013-0.269,0.02-0.403,0.021c-0.328,0-0.641-0.077-0.937-0.232c-0.316-0.172-0.588-0.416-0.793-0.711
		c-0.232-0.318-0.415-0.729-0.548-1.23c-0.132-0.5-0.202-1.094-0.212-1.776c0.01-0.702,0.082-1.294,0.22-1.776
		c0.137-0.483,0.325-0.878,0.566-1.184c0.241-0.307,0.516-0.521,0.82-0.648c0.305-0.129,0.626-0.191,0.964-0.191
		c0.301,0,0.592,0.06,0.875,0.178c0.282,0.118,0.533,0.311,0.752,0.574l1.135-1.012c-0.363-0.357-0.796-0.637-1.271-0.82
		c-0.489-0.186-1.009-0.277-1.531-0.273c-0.593,0-1.144,0.111-1.654,0.336c-0.511,0.223-0.966,0.557-1.333,0.978
		c-0.378,0.429-0.675,0.964-0.889,1.606s-0.321,1.387-0.321,2.234s0.107,1.596,0.321,2.242s0.51,1.185,0.889,1.613
		c0.378,0.429,0.82,0.752,1.326,0.971s1.061,0.328,1.661,0.328c0.301,0,0.604-0.022,0.909-0.068
		c0.609-0.092,1.192-0.313,1.709-0.648c0.259-0.17,0.494-0.386,0.704-0.649v-3.896h-3.336V63.926z M12.501,37.639
		c3.074-0.004,5.565-2.495,5.569-5.57c-0.004-3.074-2.495-5.565-5.569-5.569c-3.074,0.003-5.565,2.495-5.568,5.569
		C6.936,35.144,9.427,37.635,12.501,37.639z M12.501,28.5c1.971,0.002,3.567,1.599,3.569,3.569c-0.002,1.97-1.599,3.567-3.569,3.569
		c-1.97-0.002-3.566-1.599-3.568-3.569C8.935,30.099,10.532,28.502,12.501,28.5z"/>
</g>
<g transform="translate(376.333 147)">
	<path fill="#BCC1CB" fill-opacity="0.153" d="M-281.618-134.813l-0.771-0.771l-10.096-10.095l-0.771-0.771
		c-0.353-0.351-0.83-0.548-1.328-0.55h-29.021c-1.187,0-2.464,0.916-2.464,2.926V-91c0,0.837,0.843,1.652,1.839,1.91
		c0.05,0.013,0.098,0.031,0.149,0.042c0.156,0.03,0.315,0.048,0.476,0.048h40.073c0.16,0,0.319-0.018,0.476-0.048
		c0.052-0.011,0.1-0.029,0.149-0.042c0.996-0.258,1.838-1.073,1.838-1.91v-42.022C-281.068-133.789-281.16-134.355-281.618-134.813z
		 M-284.633-135h-8.436v-8.435L-284.633-135z M-321.068-145c0,0.552,0.448,1,1,1c0.553,0,1-0.448,1-1h2c0,0.552,0.448,1,1,1
		c0.553,0,1-0.448,1-1h2c0,0.552,0.448,1,1,1c0.553,0,1-0.448,1-1h2c0,0.552,0.448,1,1,1c0.553,0,1-0.448,1-1h2c0,0.552,0.448,1,1,1
		c0.553,0,1-0.448,1-1h2c0,0.552,0.448,1,1,1c0.553,0,1-0.448,1-1h2c0,0.552,0.448,1,1,1c0.553,0,1-0.448,1-1h0.059
		c-0.036,0.127-0.056,0.259-0.059,0.391V-133h2c0,0.552,0.448,1,1,1c0.553,0,1-0.448,1-1h2c0,0.552,0.448,1,1,1c0.553,0,1-0.448,1-1
		h2c0,0.552,0.448,1,1,1c0.553,0,1-0.448,1-1c0-0.02-0.01-0.037-0.011-0.057l0.01-0.002l0.001,0.036v12.693l-0.162-0.155
		c0.102-0.153,0.158-0.332,0.162-0.515c0-0.552-0.447-1-1-1c-0.2,0.005-0.395,0.072-0.557,0.191l-0.647-0.615
		c0.128-0.165,0.2-0.367,0.204-0.576c0-0.552-0.447-1-1-1c-0.227,0.004-0.444,0.086-0.617,0.233l-0.627-0.596
		c0.154-0.177,0.241-0.402,0.244-0.637c0-0.552-0.447-1-1-1c-0.253,0.001-0.496,0.1-0.68,0.275l-0.606-0.577
		c0.184-0.186,0.286-0.437,0.286-0.698c0-0.552-0.447-1-1-1c-0.278,0.001-0.543,0.12-0.729,0.327l-0.581-0.552
		c-0.013-0.012-0.029-0.016-0.042-0.027c0.222-0.186,0.351-0.459,0.353-0.748c0-0.552-0.447-1-1-1c-0.552,0-1,0.448-1,1
		c0,0.306,0.146,0.57,0.361,0.753c-0.031,0.027-0.071,0.042-0.099,0.073l-0.5,0.548c-0.185-0.233-0.465-0.371-0.763-0.374
		c-0.552,0-1,0.448-1,1c0,0.344,0.185,0.632,0.448,0.812l-0.612,0.671c-0.175-0.296-0.492-0.479-0.836-0.483
		c-0.492-0.24-1.086-0.035-1.325,0.458c-0.24,0.493-0.035,1.086,0.458,1.326c0.132,0.064,0.276,0.098,0.424,0.1l-0.647,0.708
		c-0.225-0.503-0.815-0.729-1.318-0.503c-0.359,0.161-0.591,0.518-0.591,0.912c0,0.44,0.288,0.802,0.684,0.936l-0.735,0.805
		c-0.111-0.434-0.5-0.738-0.948-0.741c-0.552,0-1,0.448-1,1c0,0.492,0.362,0.882,0.83,0.966l-0.85,0.931
		c-0.049-0.506-0.472-0.893-0.98-0.897c-0.55-0.007-1.001,0.435-1.008,0.985s0.435,1.003,0.985,1.01l-0.508,0.558l-4.743-4.743
		c-0.368-0.369-0.958-0.393-1.355-0.055l-6.412,5.457c0.017-0.07,0.043-0.137,0.043-0.212c0-0.552-0.447-1-1-1c-0.552,0-1,0.448-1,1
		s0.448,1,1,1c0.016,0,0.027-0.008,0.043-0.008l-1.063,0.904c-0.048-0.505-0.471-0.893-0.979-0.896c-0.552,0-1,0.448-1,1
		c0,0.461,0.318,0.832,0.743,0.948l-0.814,0.694c-0.197-0.514-0.773-0.771-1.288-0.574c-0.386,0.148-0.641,0.519-0.641,0.932
		c0,0.369,0.21,0.678,0.508,0.851l-0.697,0.593c-0.18-0.273-0.483-0.439-0.811-0.444c-0.552,0-1,0.448-1,1
		c0,0.284,0.121,0.538,0.312,0.72l-1.312,1.116V-112c0.553,0,1-0.448,1-1s-0.447-1-1-1v-2c0.553,0,1-0.448,1-1s-0.447-1-1-1v-2
		c0.553,0,1-0.448,1-1s-0.447-1-1-1v-2c0.553,0,1-0.448,1-1s-0.447-1-1-1v-2c0.553,0,1-0.448,1-1s-0.447-1-1-1v-2
		c0.553,0,1-0.448,1-1s-0.447-1-1-1v-2c0.553,0,1-0.448,1-1s-0.447-1-1-1v-2c0.553,0,1-0.448,1-1s-0.447-1-1-1v-2
		c0.553,0,1-0.448,1-1H-321.068z M-323.604-91c-0.071,0-0.136-0.025-0.198-0.049c-0.161-0.075-0.265-0.236-0.266-0.414V-106h41
		v14.537c-0.001,0.178-0.104,0.339-0.265,0.414c-0.063,0.023-0.127,0.049-0.198,0.049H-323.604z M-322.349-108l14.134-12.03
		c0.051,0.008,0.096,0.03,0.147,0.03c0.025,0,0.048-0.013,0.071-0.014l10.205,10.204c0.391,0.391,1.023,0.391,1.414,0
		c0.391-0.39,0.391-1.023,0-1.414l0,0l-4.807-4.807l9.168-10.041l8.948,8.502v9.57H-322.349z"/>
	<path fill="#BCC1CB" fill-opacity="0.153" d="M-310.525-102.256c-0.335-0.274-0.717-0.482-1.129-0.615
		c-0.41-0.135-0.839-0.205-1.271-0.205h-2.898V-93h1.642v-3.637h1.217c0.528,0,1.012-0.077,1.449-0.232
		c0.414-0.141,0.795-0.364,1.121-0.656c0.31-0.281,0.551-0.631,0.725-1.045c0.173-0.416,0.26-0.878,0.26-1.389
		c0-0.482-0.103-0.918-0.308-1.307C-309.917-101.646-310.193-101.982-310.525-102.256z M-311.147-98.927
		c-0.102,0.278-0.232,0.493-0.396,0.649c-0.154,0.148-0.338,0.263-0.54,0.334c-0.191,0.068-0.393,0.103-0.595,0.104h-1.504v-3.992
		h1.229c0.419,0,0.756,0.066,1.013,0.198c0.255,0.132,0.452,0.296,0.595,0.491c0.141,0.197,0.233,0.401,0.28,0.615
		c0.042,0.187,0.064,0.377,0.067,0.567C-310.998-99.549-311.047-99.205-311.147-98.927z M-301.92-96.131l-3.951-6.945h-1.668V-93
		h1.668v-6.945L-301.92-93h1.668v-10.076h-1.668V-96.131z M-293.744-97.074h1.709v2.488c-0.087,0.111-0.206,0.191-0.342,0.232
		c-0.158,0.055-0.32,0.099-0.485,0.129c-0.167,0.033-0.336,0.055-0.506,0.068c-0.134,0.013-0.269,0.02-0.402,0.021
		c-0.328,0-0.642-0.077-0.938-0.232c-0.315-0.172-0.587-0.416-0.793-0.711c-0.231-0.318-0.415-0.729-0.547-1.23
		c-0.132-0.5-0.203-1.094-0.212-1.776c0.009-0.702,0.082-1.294,0.219-1.776c0.137-0.483,0.326-0.878,0.567-1.184
		c0.241-0.307,0.515-0.521,0.819-0.648c0.306-0.129,0.626-0.191,0.965-0.191c0.301,0,0.592,0.06,0.875,0.178
		c0.281,0.118,0.532,0.311,0.752,0.574l1.135-1.012c-0.363-0.357-0.796-0.637-1.271-0.82c-0.488-0.186-1.008-0.277-1.53-0.273
		c-0.594,0-1.145,0.111-1.654,0.336c-0.511,0.223-0.967,0.557-1.333,0.978c-0.378,0.429-0.675,0.964-0.889,1.606
		c-0.215,0.643-0.321,1.387-0.321,2.234s0.106,1.595,0.321,2.242c0.214,0.646,0.51,1.185,0.889,1.613
		c0.378,0.429,0.82,0.752,1.326,0.971s1.06,0.328,1.661,0.328c0.301,0,0.604-0.022,0.908-0.068c0.61-0.092,1.192-0.313,1.709-0.648
		c0.26-0.17,0.494-0.386,0.704-0.649v-3.896h-3.336V-97.074z"/>
	<circle fill="#BCC1CB" fill-opacity="0.153" cx="-322.068" cy="-143" r="1"/>
	<circle fill="#BCC1CB" fill-opacity="0.153" cx="-318.068" cy="-143" r="1"/>
	<circle fill="#BCC1CB" fill-opacity="0.153" cx="-314.068" cy="-143" r="1"/>
	<circle fill="#BCC1CB" fill-opacity="0.153" cx="-310.068" cy="-143" r="1"/>
	<circle fill="#BCC1CB" fill-opacity="0.153" cx="-306.068" cy="-143" r="1"/>
	<circle fill="#BCC1CB" fill-opacity="0.153" cx="-302.068" cy="-143" r="1"/>
	<circle fill="#BCC1CB" fill-opacity="0.153" cx="-298.068" cy="-143" r="1"/>
	<circle fill="#BCC1CB" fill-opacity="0.153" cx="-296.068" cy="-141" r="1"/>
	<circle fill="#BCC1CB" fill-opacity="0.153" cx="-300.068" cy="-141" r="1"/>
	<circle fill="#BCC1CB" fill-opacity="0.153" cx="-304.068" cy="-141" r="1"/>
	<circle fill="#BCC1CB" fill-opacity="0.153" cx="-308.068" cy="-141" r="1"/>
	<circle fill="#BCC1CB" fill-opacity="0.153" cx="-312.068" cy="-141" r="1"/>
	<circle fill="#BCC1CB" fill-opacity="0.153" cx="-316.068" cy="-141" r="1"/>
	<circle fill="#BCC1CB" fill-opacity="0.153" cx="-320.068" cy="-141" r="1"/>
	<circle fill="#BCC1CB" fill-opacity="0.153" cx="-322.068" cy="-139" r="1"/>
	<circle fill="#BCC1CB" fill-opacity="0.153" cx="-318.068" cy="-139" r="1"/>
	<circle fill="#BCC1CB" fill-opacity="0.153" cx="-314.068" cy="-139" r="1"/>
	<circle fill="#BCC1CB" fill-opacity="0.153" cx="-310.068" cy="-139" r="1"/>
	<circle fill="#BCC1CB" fill-opacity="0.153" cx="-306.068" cy="-139" r="1"/>
	<circle fill="#BCC1CB" fill-opacity="0.153" cx="-302.068" cy="-139" r="1"/>
	<circle fill="#BCC1CB" fill-opacity="0.153" cx="-298.068" cy="-139" r="1"/>
	<circle fill="#BCC1CB" fill-opacity="0.153" cx="-296.068" cy="-137" r="1"/>
	<circle fill="#BCC1CB" fill-opacity="0.153" cx="-300.068" cy="-137" r="1"/>
	<circle fill="#BCC1CB" fill-opacity="0.153" cx="-304.068" cy="-137" r="1"/>
	<circle fill="#BCC1CB" fill-opacity="0.153" cx="-308.068" cy="-137" r="1"/>
	<circle fill="#BCC1CB" fill-opacity="0.153" cx="-312.068" cy="-137" r="1"/>
	<circle fill="#BCC1CB" fill-opacity="0.153" cx="-316.068" cy="-137" r="1"/>
	<circle fill="#BCC1CB" fill-opacity="0.153" cx="-320.068" cy="-137" r="1"/>
	<circle fill="#BCC1CB" fill-opacity="0.153" cx="-322.068" cy="-135" r="1"/>
	<circle fill="#BCC1CB" fill-opacity="0.153" cx="-310.068" cy="-135" r="1"/>
	<circle fill="#BCC1CB" fill-opacity="0.153" cx="-306.068" cy="-135" r="1"/>
	<circle fill="#BCC1CB" fill-opacity="0.153" cx="-302.068" cy="-135" r="1"/>
	<circle fill="#BCC1CB" fill-opacity="0.153" cx="-298.068" cy="-135" r="1"/>
	<circle fill="#BCC1CB" fill-opacity="0.153" cx="-296.068" cy="-133" r="1"/>
	<circle fill="#BCC1CB" fill-opacity="0.153" cx="-300.068" cy="-133" r="1"/>
	<circle fill="#BCC1CB" fill-opacity="0.153" cx="-304.068" cy="-133" r="1"/>
	<circle fill="#BCC1CB" fill-opacity="0.153" cx="-308.068" cy="-133" r="1"/>
	<circle fill="#BCC1CB" fill-opacity="0.153" cx="-306.068" cy="-131" r="1"/>
	<circle fill="#BCC1CB" fill-opacity="0.153" cx="-302.068" cy="-131" r="1"/>
	<circle fill="#BCC1CB" fill-opacity="0.153" cx="-298.068" cy="-131" r="1"/>
	<circle fill="#BCC1CB" fill-opacity="0.153" cx="-294.068" cy="-131" r="1"/>
	<circle fill="#BCC1CB" fill-opacity="0.153" cx="-290.068" cy="-131" r="1"/>
	<circle fill="#BCC1CB" fill-opacity="0.153" cx="-288.068" cy="-129" r="1"/>
	<circle fill="#BCC1CB" fill-opacity="0.153" cx="-284.068" cy="-125" r="1"/>
	<circle fill="#BCC1CB" fill-opacity="0.153" cx="-286.068" cy="-127" r="1"/>
	<circle fill="#BCC1CB" fill-opacity="0.153" cx="-284.068" cy="-129" r="1"/>
	<circle fill="#BCC1CB" fill-opacity="0.153" cx="-286.068" cy="-131" r="1"/>
	<circle fill="#BCC1CB" fill-opacity="0.153" cx="-296.068" cy="-129" r="1"/>
	<circle fill="#BCC1CB" fill-opacity="0.153" cx="-300.068" cy="-129" r="1"/>
	<circle fill="#BCC1CB" fill-opacity="0.153" cx="-304.068" cy="-129" r="1"/>
	<circle fill="#BCC1CB" fill-opacity="0.153" cx="-308.068" cy="-129" r="1"/>
	<path fill="#BCC1CB" fill-opacity="0.153" d="M-322.068-126c0.413-0.001,0.783-0.257,0.929-0.644
		c0.136,0.301,0.296,0.589,0.48,0.858c-0.253,0.183-0.405,0.474-0.409,0.786c0,0.552,0.448,1,1,1
		c0.308-0.003,0.596-0.151,0.778-0.398c0.258,0.184,0.533,0.345,0.822,0.484c-0.506,0.219-0.738,0.806-0.52,1.312
		c0.158,0.367,0.52,0.604,0.919,0.602c0.553,0,1-0.448,1-1c-0.004-0.17-0.052-0.335-0.14-0.481c0.752,0.158,1.528,0.158,2.28,0
		c-0.088,0.146-0.136,0.311-0.141,0.481c0,0.552,0.448,1,1,1c0.553,0,1-0.448,1-1c0-0.396-0.235-0.755-0.599-0.914
		c0.287-0.138,0.563-0.299,0.822-0.484c0.182,0.247,0.47,0.395,0.776,0.398c0.553,0,1-0.448,1-1
		c-0.003-0.312-0.155-0.604-0.408-0.785c0.185-0.271,0.346-0.558,0.48-0.858c0.191,0.515,0.764,0.778,1.279,0.587
		c0.394-0.146,0.653-0.524,0.648-0.944c0-0.552-0.447-1-1-1c-0.194,0.005-0.384,0.068-0.543,0.182
		c0.073-0.36,0.112-0.732,0.112-1.114c0-0.441-0.057-0.868-0.154-1.28c0.167,0.133,0.372,0.208,0.585,0.212c0.553,0,1-0.448,1-1
		s-0.447-1-1-1c-0.447,0.004-0.836,0.308-0.947,0.741c-0.147-0.319-0.325-0.624-0.53-0.909c0.293-0.176,0.474-0.491,0.478-0.832
		c0-0.552-0.447-1-1-1c-0.346,0.004-0.664,0.19-0.839,0.489c-0.299-0.208-0.619-0.386-0.954-0.531
		c0.458-0.091,0.789-0.491,0.793-0.958c0-0.552-0.447-1-1-1c-0.552,0-1,0.448-1,1c0,0.25,0.102,0.472,0.254,0.647
		c-0.411-0.096-0.832-0.146-1.254-0.147c-0.431,0-0.849,0.054-1.253,0.147c0.16-0.178,0.251-0.408,0.253-0.647c0-0.552-0.447-1-1-1
		c-0.552,0-1,0.448-1,1c0,0.479,0.345,0.86,0.794,0.958c-0.335,0.145-0.654,0.323-0.954,0.531c-0.175-0.299-0.493-0.485-0.84-0.489
		c-0.552,0-1,0.448-1,1c0,0.356,0.197,0.654,0.479,0.832c-0.205,0.286-0.382,0.59-0.53,0.909c-0.111-0.434-0.5-0.737-0.948-0.741
		c-0.552,0-1,0.448-1,1s0.448,1,1,1c0.213-0.004,0.419-0.079,0.586-0.211c-0.102,0.419-0.152,0.849-0.154,1.28
		c0,0.381,0.039,0.754,0.112,1.114c-0.159-0.114-0.349-0.178-0.544-0.183c-0.552,0-1,0.448-1,1S-322.62-126-322.068-126z
		 M-316.068-132.5c1.971,0.002,3.567,1.599,3.569,3.569c-0.002,1.97-1.599,3.567-3.569,3.569c-1.97-0.002-3.566-1.599-3.568-3.569
		C-319.634-130.901-318.038-132.498-316.068-132.5z"/>
	<circle fill="#BCC1CB" fill-opacity="0.153" cx="-306.068" cy="-127" r="1"/>
	<circle fill="#BCC1CB" fill-opacity="0.153" cx="-302.068" cy="-127" r="1"/>
	<circle fill="#BCC1CB" fill-opacity="0.153" cx="-298.068" cy="-127" r="1"/>
	<circle fill="#BCC1CB" fill-opacity="0.153" cx="-300.068" cy="-125" r="1"/>
	<circle fill="#BCC1CB" fill-opacity="0.153" cx="-304.068" cy="-125" r="1"/>
	<circle fill="#BCC1CB" fill-opacity="0.153" cx="-308.068" cy="-125" r="1"/>
	<circle fill="#BCC1CB" fill-opacity="0.153" cx="-322.068" cy="-123" r="1"/>
	<circle fill="#BCC1CB" fill-opacity="0.153" cx="-310.068" cy="-123" r="1"/>
	<circle fill="#BCC1CB" fill-opacity="0.153" cx="-306.068" cy="-123" r="1"/>
	<circle fill="#BCC1CB" fill-opacity="0.153" cx="-302.068" cy="-123" r="1"/>
	<circle fill="#BCC1CB" fill-opacity="0.153" cx="-304.068" cy="-121" r="1"/>
	<circle fill="#BCC1CB" fill-opacity="0.153" cx="-312.068" cy="-121" r="1"/>
	<circle fill="#BCC1CB" fill-opacity="0.153" cx="-316.068" cy="-121" r="1"/>
	<circle fill="#BCC1CB" fill-opacity="0.153" cx="-320.068" cy="-121" r="1"/>
	<circle fill="#BCC1CB" fill-opacity="0.153" cx="-322.068" cy="-119" r="1"/>
	<circle fill="#BCC1CB" fill-opacity="0.153" cx="-318.068" cy="-119" r="1"/>
	<circle fill="#BCC1CB" fill-opacity="0.153" cx="-314.068" cy="-119" r="1"/>
	<circle fill="#BCC1CB" fill-opacity="0.153" cx="-320.068" cy="-117" r="1"/>
	<circle fill="#BCC1CB" fill-opacity="0.153" cx="-322.068" cy="-115" r="1"/>
</g>
<g>
	<path fill="#BFC4CD" fill-opacity="0.15" d="M145.049,26.187l-0.771-0.771l-10.095-10.095l-0.771-0.771
		c-0.353-0.351-0.83-0.548-1.328-0.55h-29.021c-1.187,0-2.464,0.916-2.464,2.926V70c0,0.837,0.843,1.652,1.839,1.91
		c0.05,0.013,0.098,0.031,0.149,0.042c0.156,0.03,0.315,0.048,0.476,0.048h40.073c0.16,0,0.319-0.018,0.476-0.048
		c0.052-0.011,0.1-0.029,0.149-0.042c0.996-0.258,1.839-1.073,1.839-1.91V27.978C145.6,27.211,145.507,26.645,145.049,26.187
		L145.049,26.187z M142.034,26h-8.436v-8.435L142.034,26z M103.063,70c-0.071,0-0.136-0.025-0.198-0.049
		c-0.161-0.075-0.265-0.236-0.266-0.414V55h41v14.537c-0.001,0.178-0.104,0.339-0.265,0.414c-0.063,0.023-0.127,0.049-0.198,0.049
		H103.063z M102.599,53V16.926c0-0.217,0.033-0.926,0.464-0.926h28.595c-0.036,0.127-0.056,0.259-0.059,0.391V28h11.609
		c0.135,0,0.264-0.025,0.391-0.058V53H102.599L102.599,53z"/>
	<path fill="#BFC4CD" fill-opacity="0.15" d="M116.142,58.744c-0.334-0.274-0.717-0.482-1.129-0.615
		c-0.409-0.135-0.839-0.205-1.271-0.205h-2.898V68h1.641v-3.637h1.218c0.528,0,1.012-0.077,1.449-0.232
		c0.413-0.142,0.794-0.364,1.12-0.656c0.31-0.281,0.552-0.631,0.726-1.045c0.173-0.416,0.26-0.878,0.26-1.389
		c0-0.482-0.103-0.918-0.308-1.307C116.749,59.354,116.474,59.018,116.142,58.744z M115.52,62.073
		c-0.102,0.278-0.232,0.493-0.396,0.649c-0.154,0.148-0.338,0.263-0.54,0.334c-0.191,0.068-0.393,0.103-0.595,0.104h-1.504v-3.992
		h1.229c0.419,0,0.756,0.066,1.013,0.198c0.255,0.132,0.452,0.296,0.595,0.491c0.14,0.197,0.233,0.401,0.28,0.615
		c0.042,0.187,0.064,0.377,0.067,0.567C115.669,61.451,115.619,61.795,115.52,62.073z M126.052,59.4
		c-0.452-0.467-0.997-0.832-1.6-1.073c-0.642-0.269-1.387-0.403-2.234-0.403h-3.035V68h3.814c0.127,0,0.323-0.016,0.588-0.048
		c0.264-0.032,0.557-0.104,0.875-0.22c0.319-0.113,0.649-0.284,0.99-0.513c0.343-0.228,0.65-0.54,0.924-0.937
		c0.274-0.397,0.499-0.889,0.677-1.477c0.179-0.589,0.268-1.298,0.268-2.127c0-0.6-0.106-1.194-0.314-1.757
		C126.794,60.355,126.471,59.838,126.052,59.4L126.052,59.4z M124.857,65.73c-0.492,0.711-1.294,1.065-2.406,1.065h-1.627v-7.629
		h0.957c0.784,0,1.422,0.103,1.914,0.308s0.882,0.475,1.169,0.808s0.479,0.704,0.58,1.114c0.1,0.41,0.149,0.824,0.149,1.244
		C125.594,63.989,125.349,65.02,124.857,65.73L124.857,65.73z M129.697,68h1.668v-4.539h4.21V62.34h-4.21v-3.172h4.634v-1.244
		h-6.302V68z M132.527,36.961c-0.92,0-2.047,0.12-3.358,0.357c-1.83-1.941-3.74-4.777-5.088-7.562
		c1.337-5.629,0.668-6.426,0.373-6.802c-0.314-0.4-0.757-1.049-1.261-1.049c-0.211,0-0.787,0.096-1.017,0.172
		c-0.575,0.192-0.886,0.636-1.134,1.215c-0.707,1.653,0.263,4.471,1.26,6.643c-0.852,3.393-2.282,7.455-3.786,10.75
		c-3.79,1.736-5.804,3.441-5.985,5.068c-0.066,0.592,0.074,1.461,1.115,2.242c0.284,0.213,0.618,0.326,0.967,0.326
		c0.875,0,1.759-0.67,2.782-2.107c0.746-1.048,1.547-2.477,2.383-4.251c2.678-1.171,5.99-2.229,8.828-2.821
		c1.58,1.517,2.995,2.284,4.21,2.284c0.896,0,1.665-0.411,2.22-1.19c0.58-0.812,0.712-1.537,0.39-2.16
		C135.042,37.327,134.093,36.961,132.527,36.961L132.527,36.961z M114.635,46.634c-0.468-0.358-0.44-0.601-0.431-0.692
		c0.063-0.556,0.933-1.543,3.07-2.743C115.654,46.189,114.784,46.587,114.635,46.634L114.635,46.634z M122.835,23.712
		c0.043-0.014,1.045,1.101,0.096,3.216C121.505,25.469,122.737,23.745,122.835,23.712z M120.769,39.738
		c1.032-2.469,1.925-4.995,2.674-7.564c1.123,2.018,2.472,3.977,3.822,5.544C125.056,38.242,122.885,38.918,120.769,39.738z
		 M133.668,39.259c-0.307,0.431-0.975,0.441-1.21,0.441c-0.532,0-0.73-0.317-1.546-0.944c0.601-0.074,1.205-0.109,1.81-0.107
		c0.891,0,1.054,0.131,1.177,0.196C133.876,38.916,133.818,39.05,133.668,39.259z"/>
</g>
</svg>
